<?xml version="1.0" standalone="no"?>
<!DOCTYPE svg PUBLIC "-//W3C//DTD SVG 20010904//EN"
 "http://www.w3.org/TR/2001/REC-SVG-20010904/DTD/svg10.dtd">
<svg version="1.0" xmlns="http://www.w3.org/2000/svg"
 width="800.000000pt" height="800.000000pt" viewBox="0 0 800.000000 800.000000"
 preserveAspectRatio="xMidYMid meet">
<metadata>
Created by potrace 1.14, written by Peter Selinger 2001-2017
</metadata>
<g transform="translate(0.000000,800.000000) scale(0.100000,-0.100000)"
fill="#000000" stroke="none">
<path d="M6158 6855 c-3 -3 -54 -9 -115 -14 -96 -8 -145 -20 -163 -42 -3 -3
-18 -11 -35 -17 -16 -6 -24 -11 -17 -11 10 -1 10 -4 -2 -16 -8 -8 -19 -15 -24
-15 -12 0 -52 -44 -52 -58 0 -7 -6 -12 -14 -12 -8 0 -16 -4 -18 -9 -3 -10 -61
-80 -105 -129 -13 -14 -23 -31 -23 -38 0 -8 -5 -14 -11 -14 -5 0 -7 -5 -4 -10
4 -6 -7 -15 -24 -21 -17 -6 -31 -14 -31 -18 0 -3 -20 -29 -45 -56 -25 -28 -45
-56 -45 -63 0 -7 -4 -10 -10 -7 -5 3 -10 0 -10 -8 0 -8 -7 -18 -16 -21 -8 -3
-12 -10 -9 -16 3 -5 0 -10 -7 -10 -7 -1 -33 -26 -58 -57 -63 -78 -78 -91 -114
-98 -17 -4 -44 -13 -61 -20 -16 -7 -37 -15 -44 -17 -8 -2 -29 -17 -47 -35 -18
-17 -35 -28 -38 -25 -3 3 -6 -2 -6 -12 0 -9 -4 -14 -10 -11 -5 3 -10 1 -10 -4
0 -6 -7 -11 -15 -11 -8 0 -15 -5 -15 -10 0 -7 25 -9 73 -5 39 4 83 3 96 -3 23
-8 20 -10 -33 -27 -103 -33 -156 -105 -156 -214 0 -47 18 -118 35 -138 30 -36
35 -43 35 -52 0 -5 -10 -17 -22 -25 -27 -19 -39 -11 -69 52 -41 85 -49 116
-49 205 0 51 -4 87 -10 87 -5 0 -10 -4 -10 -10 0 -5 -9 -10 -19 -10 -31 0 -55
-76 -48 -153 5 -66 44 -197 58 -197 5 0 9 -8 9 -17 0 -10 7 -27 15 -38 15 -18
17 -18 44 -2 51 30 64 -13 28 -95 -9 -20 -22 -42 -30 -50 -18 -19 -57 -75 -57
-83 0 -7 58 24 77 42 7 6 13 16 13 22 0 20 48 12 64 -10 21 -31 187 -169 203
-169 7 0 13 -3 13 -8 0 -4 16 -16 35 -26 l35 -19 26 24 c31 29 177 100 184 89
3 -4 30 -11 60 -14 211 -23 263 -17 292 34 39 69 66 7 33 -74 -14 -33 -14 -36
2 -36 19 1 78 69 74 84 -2 5 3 12 10 17 8 4 16 44 20 101 9 106 17 148 31 148
13 0 57 48 98 106 19 27 38 51 42 52 4 2 8 10 8 18 0 9 4 12 10 9 5 -3 12 6
16 20 3 14 12 25 20 25 8 0 14 6 14 13 0 8 20 36 45 63 25 27 45 52 45 57 0 5
12 21 28 37 45 46 62 69 62 85 0 8 4 15 8 15 5 0 24 21 42 48 19 26 40 53 46
60 7 6 16 21 19 32 4 11 11 18 16 15 5 -4 9 1 9 10 0 8 7 18 15 21 8 4 15 11
15 17 0 6 6 18 14 26 8 9 17 27 20 41 26 116 26 115 11 243 -4 37 -12 67 -16
67 -5 0 -9 13 -9 29 0 28 -47 132 -62 139 -5 2 -8 8 -8 14 0 13 -141 148 -154
148 -3 0 -30 11 -59 25 -30 13 -74 27 -97 30 -23 3 -45 7 -50 10 -4 2 -9 2
-12 0z m-974 -1517 c39 -35 106 -85 149 -112 78 -50 94 -73 57 -83 -11 -3 -20
-12 -20 -19 0 -8 -7 -14 -15 -14 -14 0 -112 59 -141 85 -140 122 -177 165
-144 165 6 0 10 6 10 14 0 12 10 21 28 25 2 1 36 -27 76 -61z"/>
<path d="M5462 5003 c-18 -21 -32 -43 -32 -49 0 -37 217 -60 319 -34 61 15 81
28 81 50 0 10 7 26 16 35 16 15 14 16 -22 8 -64 -13 -224 -7 -273 11 -24 9
-47 16 -51 16 -4 0 -21 -17 -38 -37z"/>
<path d="M5192 4740 c0 -14 2 -19 5 -12 2 6 2 18 0 25 -3 6 -5 1 -5 -13z"/>
<path d="M2164 1117 c-4 -7 -4 -9 1 -5 4 4 14 3 22 -3 8 -7 13 -8 13 -1 0 15
-28 23 -36 9z"/>
<path d="M1403 1103 c-7 -2 -13 -9 -13 -14 0 -6 5 -7 10 -4 6 3 10 2 10 -2 0
-5 10 -9 23 -9 14 0 23 6 23 16 0 16 -29 23 -53 13z"/>
</g>
</svg>
